<svg width="16" height="16" viewBox="0 0 16 16" fill="none" xmlns="http://www.w3.org/2000/svg">
<path d="M7.99999 7.83333C8.32221 7.83333 8.59721 7.71944 8.82499 7.49167C9.05277 7.26389 9.16666 6.98889 9.16666 6.66667C9.16666 6.34444 9.05277 6.06944 8.82499 5.84167C8.59721 5.61389 8.32221 5.5 7.99999 5.5C7.67777 5.5 7.40277 5.61389 7.17499 5.84167C6.94721 6.06944 6.83332 6.34444 6.83332 6.66667C6.83332 6.98889 6.94721 7.26389 7.17499 7.49167C7.40277 7.71944 7.67777 7.83333 7.99999 7.83333ZM8.01666 14.4667C7.93888 14.4667 7.86666 14.4556 7.79999 14.4333C7.73332 14.4111 7.67221 14.3778 7.61666 14.3333C5.9611 12.8778 4.72221 11.5278 3.89999 10.2833C3.07777 9.03889 2.66666 7.87778 2.66666 6.8C2.66666 5.13333 3.20277 3.80556 4.27499 2.81667C5.34721 1.82778 6.58888 1.33333 7.99999 1.33333C9.4111 1.33333 10.6528 1.82778 11.725 2.81667C12.7972 3.80556 13.3333 5.13333 13.3333 6.8C13.3333 7.87778 12.9222 9.03889 12.1 10.2833C11.2778 11.5278 10.0389 12.8778 8.38332 14.3333C8.32777 14.3778 8.26943 14.4111 8.20832 14.4333C8.14721 14.4556 8.08332 14.4667 8.01666 14.4667Z" fill="#FFC020"/>
</svg>
