<svg width="24" height="24" viewBox="0 0 24 24" fill="none" xmlns="http://www.w3.org/2000/svg">
<path d="M15.6748 21.3L6.8998 12.525C6.81647 12.4417 6.75814 12.3584 6.7248 12.275C6.69147 12.1917 6.6748 12.1 6.6748 12C6.6748 11.9 6.69147 11.8084 6.7248 11.725C6.75814 11.6417 6.81647 11.5584 6.8998 11.475L15.6748 2.70005C15.8581 2.51672 16.0915 2.42505 16.3748 2.42505C16.6581 2.42505 16.8915 2.51672 17.0748 2.70005C17.2748 2.90005 17.3748 3.13755 17.3748 3.41255C17.3748 3.68755 17.2748 3.92505 17.0748 4.12505L9.1998 12L17.0748 19.875C17.2915 20.0917 17.3915 20.3334 17.3748 20.6C17.3581 20.8667 17.2581 21.0917 17.0748 21.275C16.8748 21.475 16.6373 21.5751 16.3623 21.5751C16.0873 21.5751 15.8581 21.4834 15.6748 21.3Z" fill="#40090C"/>
</svg>
